<svg xmlns="http://www.w3.org/2000/svg" xmlns:xlink="http://www.w3.org/1999/xlink" viewBox="0 0 650 650"><defs><style>.cls-1{fill:url(#Безымянный_градиент_263);}.cls-2{fill:url(#Безымянный_градиент_5);}.cls-18,.cls-29,.cls-3,.cls-39,.cls-45,.cls-47,.cls-49,.cls-5{fill:none;stroke-miterlimit:10;}.cls-3{stroke-width:0.93px;stroke:url(#Безымянный_градиент_10);}.cls-4{fill:url(#Безымянный_градиент_17);}.cls-5{stroke-width:2.67px;stroke:url(#Безымянный_градиент_164);}.cls-6{fill:url(#Безымянный_градиент_5-2);}.cls-7{fill:url(#Безымянный_градиент_5-3);}.cls-8{fill:url(#Безымянный_градиент_5-4);}.cls-9{fill:url(#Безымянный_градиент_5-5);}.cls-10{fill:url(#Безымянный_градиент_5-6);}.cls-11{fill:url(#Безымянный_градиент_5-7);}.cls-12{fill:url(#Безымянный_градиент_18);}.cls-13{fill:url(#Безымянный_градиент_33);}.cls-14{fill:url(#Безымянный_градиент_33-2);}.cls-15{fill:url(#Безымянный_градиент_33-3);}.cls-16{fill:url(#Безымянный_градиент_17-2);}.cls-17{fill:url(#Безымянный_градиент_33-4);}.cls-18{stroke-width:1.55px;stroke:url(#Безымянный_градиент_33-5);}.cls-19{fill:url(#Безымянный_градиент_33-6);}.cls-20{fill:url(#Безымянный_градиент_17-3);}.cls-21{fill:url(#Безымянный_градиент_33-7);}.cls-22{fill:url(#Безымянный_градиент_11);}.cls-23{fill:url(#Безымянный_градиент_16);}.cls-24{fill:url(#Безымянный_градиент_170);}.cls-25{fill:#fff;}.cls-26{fill:url(#Безымянный_градиент_170-2);}.cls-27{fill:url(#Безымянный_градиент_106);}.cls-28{fill:#191337;}.cls-29{stroke:#f3f6fd;}.cls-29,.cls-45{stroke-linecap:round;}.cls-30{fill:url(#Безымянный_градиент_170-3);}.cls-31{fill:url(#Безымянный_градиент_170-4);}.cls-32{fill:url(#Безымянный_градиент_216);}.cls-33{fill:url(#Безымянный_градиент_40);}.cls-34{fill:url(#Безымянный_градиент_106-2);}.cls-35{fill:url(#Безымянный_градиент_45);}.cls-36{fill:url(#Безымянный_градиент_100);}.cls-37{fill:url(#Безымянный_градиент_271);}.cls-38{fill:#1f1844;}.cls-39{stroke:#17ff44;stroke-width:1.95px;}.cls-40{fill:url(#Безымянный_градиент_16-2);}.cls-41{fill:url(#Безымянный_градиент_16-3);}.cls-42{fill:url(#Безымянный_градиент_45-2);}.cls-43{fill:url(#Безымянный_градиент_40-2);}.cls-44{fill:url(#Безымянный_градиент_269);}.cls-45,.cls-49{stroke:#fff;}.cls-46{fill:url(#Безымянный_градиент_100-2);}.cls-47{stroke:#d6d9e8;stroke-width:5.49px;}.cls-48{fill:url(#Безымянный_градиент_269-2);}.cls-49{stroke-width:0.76px;}.cls-50{fill:url(#Безымянный_градиент_100-3);}.cls-51{fill:url(#Безымянный_градиент_61);}</style><linearGradient id="Безымянный_градиент_263" x1="17.85" y1="323.13" x2="644.36" y2="323.13" gradientUnits="userSpaceOnUse"><stop offset="0" stop-color="#f0f2f5"/><stop offset="0.99" stop-color="#f5f7f8"/></linearGradient><linearGradient id="Безымянный_градиент_5" x1="104.12" y1="480.47" x2="79.59" y2="294.29" gradientUnits="userSpaceOnUse"><stop offset="0" stop-color="#1f1844"/><stop offset="0.99" stop-color="#3d3c99"/></linearGradient><linearGradient id="Безымянный_градиент_10" x1="102.89" y1="475.67" x2="81.3" y2="311.91" gradientUnits="userSpaceOnUse"><stop offset="0" stop-color="#3f3d9e"/><stop offset="0.99" stop-color="#423e9f"/></linearGradient><linearGradient id="Безымянный_градиент_17" x1="115.46" y1="411.98" x2="206.51" y2="391.06" gradientUnits="userSpaceOnUse"><stop offset="0.01" stop-color="#bbc0d9"/><stop offset="1" stop-color="#d6dbf8"/></linearGradient><linearGradient id="Безымянный_градиент_164" x1="398.17" y1="-37.95" x2="467.83" y2="-25.2" gradientTransform="translate(-266.33 535.94) rotate(-10.18)" gradientUnits="userSpaceOnUse"><stop offset="0" stop-color="#bac6d8"/><stop offset="0.99" stop-color="#d6dbf8"/></linearGradient><linearGradient id="Безымянный_градиент_5-2" x1="102.39" y1="415.8" x2="74.47" y2="388.37" xlink:href="#Безымянный_градиент_5"/><linearGradient id="Безымянный_градиент_5-3" x1="101.5" y1="438.85" x2="69.01" y2="427.54" xlink:href="#Безымянный_градиент_5"/><linearGradient id="Безымянный_градиент_5-4" x1="103.92" y1="415.73" x2="133.47" y2="392.48" xlink:href="#Безымянный_градиент_5"/><linearGradient id="Безымянный_градиент_5-5" x1="101.77" y1="438.9" x2="130.45" y2="425.16" xlink:href="#Безымянный_градиент_5"/><linearGradient id="Безымянный_градиент_5-6" x1="106.89" y1="460.47" x2="68.71" y2="455.91" xlink:href="#Безымянный_градиент_5"/><linearGradient id="Безымянный_градиент_5-7" x1="102.65" y1="463.16" x2="128.74" y2="447.21" xlink:href="#Безымянный_градиент_5"/><linearGradient id="Безымянный_градиент_18" x1="112.44" y1="355.59" x2="103.51" y2="392.09" gradientUnits="userSpaceOnUse"><stop offset="0.01" stop-color="#3d3c99"/><stop offset="1" stop-color="#1f1844"/></linearGradient><linearGradient id="Безымянный_градиент_33" x1="1755.19" y1="-963.95" x2="1766.98" y2="-963.95" gradientTransform="translate(-462.58 2333.18) rotate(-45.37)" gradientUnits="userSpaceOnUse"><stop offset="0" stop-color="#e0e4eb"/><stop offset="0.99" stop-color="#f3f6fd"/></linearGradient><linearGradient id="Безымянный_градиент_33-2" x1="3011.69" y1="-937.46" x2="3023.59" y2="-937.46" gradientTransform="translate(56 3594.41) rotate(-72.22)" xlink:href="#Безымянный_градиент_33"/><linearGradient id="Безымянный_градиент_33-3" x1="-50.64" y1="2790.04" x2="-38.83" y2="2790.04" gradientTransform="matrix(0.63, 0.78, -0.78, 0.63, 2312.63, -1322.99)" xlink:href="#Безымянный_градиент_33"/><linearGradient id="Безымянный_градиент_17-2" x1="118.92" y1="437.68" x2="131.22" y2="425.05" xlink:href="#Безымянный_градиент_17"/><linearGradient id="Безымянный_градиент_33-4" x1="153.81" y1="3411.64" x2="165.9" y2="3411.64" gradientTransform="matrix(0.5, 0.87, -0.77, 0.45, 2661.06, -1231.52)" xlink:href="#Безымянный_градиент_33"/><linearGradient id="Безымянный_градиент_33-5" x1="484.61" y1="-147.24" x2="501.98" y2="-147.24" gradientTransform="translate(-337.25 690.61) rotate(-13.38)" xlink:href="#Безымянный_градиент_33"/><linearGradient id="Безымянный_градиент_33-6" x1="3838.25" y1="-684.17" x2="3850.62" y2="-684.17" gradientTransform="matrix(0.04, -0.93, 1, 0.04, 621.5, 4068.51)" xlink:href="#Безымянный_градиент_33"/><linearGradient id="Безымянный_градиент_17-3" x1="119.2" y1="457.49" x2="131.48" y2="443.87" xlink:href="#Безымянный_градиент_17"/><linearGradient id="Безымянный_градиент_33-7" x1="485.57" y1="4154.54" x2="498.96" y2="4154.54" gradientTransform="matrix(0.35, 0.94, -0.74, 0.28, 3028.09, -1158.72)" xlink:href="#Безымянный_градиент_33"/><linearGradient id="Безымянный_градиент_11" x1="114.35" y1="355.06" x2="105.43" y2="391.56" gradientUnits="userSpaceOnUse"><stop offset="0" stop-color="#e6eaf1"/><stop offset="0.99" stop-color="#f3f6fd"/></linearGradient><linearGradient id="Безымянный_градиент_16" x1="77.86" y1="515.21" x2="145.87" y2="499.59" gradientUnits="userSpaceOnUse"><stop offset="0.11" stop-color="#8988d5"/><stop offset="0.56" stop-color="#9d9ce8"/><stop offset="1" stop-color="#a7a5ee"/></linearGradient><linearGradient id="Безымянный_градиент_170" x1="97.87" y1="198.31" x2="413.15" y2="198.31" gradientUnits="userSpaceOnUse"><stop offset="0.01" stop-color="#bbbfd9"/><stop offset="1" stop-color="#d6dbf8"/></linearGradient><linearGradient id="Безымянный_градиент_170-2" x1="425.95" y1="458.66" x2="452.36" y2="458.66" xlink:href="#Безымянный_градиент_170"/><linearGradient id="Безымянный_градиент_106" x1="451.7" y1="498.43" x2="439.36" y2="476.76" gradientUnits="userSpaceOnUse"><stop offset="0" stop-color="#ffd0b9"/><stop offset="0.04" stop-color="#facab2"/><stop offset="0.35" stop-color="#d7a384"/><stop offset="0.62" stop-color="#be8662"/><stop offset="0.85" stop-color="#af744d"/><stop offset="1" stop-color="#a96e46"/></linearGradient><linearGradient id="Безымянный_градиент_170-3" x1="523.83" y1="453" x2="550.69" y2="453" xlink:href="#Безымянный_градиент_170"/><linearGradient id="Безымянный_градиент_170-4" x1="487.36" y1="460.49" x2="512.3" y2="460.49" xlink:href="#Безымянный_градиент_170"/><linearGradient id="Безымянный_градиент_216" x1="488.79" y1="403.66" x2="488.79" y2="238.64" gradientUnits="userSpaceOnUse"><stop offset="0" stop-color="#201f4f"/><stop offset="0.39" stop-color="#3d3c99"/><stop offset="1" stop-color="#403da0"/></linearGradient><linearGradient id="Безымянный_градиент_40" x1="540.62" y1="324.71" x2="555.62" y2="326.21" gradientUnits="userSpaceOnUse"><stop offset="0.11" stop-color="#343381"/><stop offset="0.56" stop-color="#3d3c99"/><stop offset="1" stop-color="#403da0"/></linearGradient><linearGradient id="Безымянный_градиент_106-2" x1="346.5" y1="521.53" x2="362.08" y2="492.48" xlink:href="#Безымянный_градиент_106"/><linearGradient id="Безымянный_градиент_45" x1="376.35" y1="283.75" x2="510.85" y2="265.25" gradientUnits="userSpaceOnUse"><stop offset="0" stop-color="#bdbdbd"/><stop offset="0.55" stop-color="#ccc"/><stop offset="0.91" stop-color="#d9d9d9"/></linearGradient><linearGradient id="Безымянный_градиент_100" x1="453.89" y1="282.33" x2="552.56" y2="227.66" gradientUnits="userSpaceOnUse"><stop offset="0" stop-color="#a96e46"/><stop offset="0.15" stop-color="#af744d"/><stop offset="0.38" stop-color="#be8662"/><stop offset="0.65" stop-color="#d7a384"/><stop offset="0.96" stop-color="#facab2"/><stop offset="1" stop-color="#ffd0b9"/></linearGradient><linearGradient id="Безымянный_градиент_271" x1="280.25" y1="297.2" x2="414.79" y2="297.2" gradientUnits="userSpaceOnUse"><stop offset="0.01" stop-color="#bbbfd9"/><stop offset="0.29" stop-color="#cacde2"/><stop offset="0.84" stop-color="#f2f3f8"/><stop offset="1" stop-color="#fff"/></linearGradient><linearGradient id="Безымянный_градиент_16-2" x1="575.76" y1="441.16" x2="593.78" y2="441.16" xlink:href="#Безымянный_градиент_16"/><linearGradient id="Безымянный_градиент_16-3" x1="267.42" y1="441.16" x2="284.26" y2="441.16" xlink:href="#Безымянный_градиент_16"/><linearGradient id="Безымянный_градиент_45-2" x1="434.59" y1="325.42" x2="528.99" y2="325.42" xlink:href="#Безымянный_градиент_45"/><linearGradient id="Безымянный_градиент_40-2" x1="430.51" y1="352.03" x2="430.51" y2="334.98" xlink:href="#Безымянный_градиент_40"/><linearGradient id="Безымянный_градиент_269" x1="396.46" y1="323.83" x2="428.86" y2="281.46" gradientUnits="userSpaceOnUse"><stop offset="0" stop-color="#fff"/><stop offset="0.16" stop-color="#f2f3f8"/><stop offset="0.71" stop-color="#cacde2"/><stop offset="0.99" stop-color="#bbbfd9"/></linearGradient><linearGradient id="Безымянный_градиент_100-2" x1="476.83" y1="323.74" x2="575.5" y2="269.07" xlink:href="#Безымянный_градиент_100"/><linearGradient id="Безымянный_градиент_269-2" x1="460.73" y1="316.79" x2="488.8" y2="316.79" xlink:href="#Безымянный_градиент_269"/><linearGradient id="Безымянный_градиент_100-3" x1="415.48" y1="213" x2="514.14" y2="158.34" xlink:href="#Безымянный_градиент_100"/><linearGradient id="Безымянный_градиент_61" x1="493.34" y1="195.54" x2="464.56" y2="223.79" gradientUnits="userSpaceOnUse"><stop offset="0" stop-color="#ffd0b9" stop-opacity="0"/><stop offset="1" stop-color="#a96e46"/></linearGradient></defs><title>1</title><g id="Слой_2" data-name="Слой 2"><path class="cls-1" d="M623,335.61C567.94,223.14,410.59,58.41,206.12,58c-213.36-.44-234,211.17-119,270S34,460.11,154.18,533.78c121.66,74.56,381.67,67.56,445.67,9.56S646.73,384.2,623,335.61Z"/><path class="cls-2" d="M104.4,481.8s27-30.06,24.14-41.91,13.89-26.24,14.22-43.5c.37-19.55-10.07-14.32-13.69-22.68-5.36-12.39,6.57-23.36-11.46-28.1-12.31-3.24-21,3.08-19.84-12.15s-4.39-34.08-14.25-40.92c-14.09-9.78-42.76-10.54-33.1,9.16,10.15,20.71,1.2,54.81-1.16,64.15C24.26,464.54,104.4,481.8,104.4,481.8Z"/><path class="cls-3" d="M74.27,312.84c3.09,25.48,35,66.2,20.57,93.41s7.47,69.34,7.47,69.34"/><path class="cls-4" d="M186.24,424.87c-17.54,6.2,1.45,28.89-17.73,39.11s-43.77,15.4-44.9,10.44c-.08-.33-1.11-3.62-2.2-8.43-.25-1.11-.5-2.31-.75-3.57-.06-.35-.13-.71-.2-1.07A97.08,97.08,0,0,1,119,449.74c0-.12,0-.24,0-.36-.09-1.55-.12-3.11-.09-4.66s.11-3,.27-4.43c.57-5.52,2.15-10.61,5.38-14.26a15.27,15.27,0,0,1,2.8-2.51c13.33-9.27,18.65-4.77,18.55-18.47-.18-23.48,6.51-27,14.38-24.67s14,3,15.17-5.71-6-47.36,11.92-47.29c31,.1,15.31,39.62,12.18,46-7.5,15.37,8.1,17.78,11.81,29S203.77,418.67,186.24,424.87Z"/><path class="cls-5" d="M120.18,508.16s-4.71-43.22,28.23-67.44c14.88-10.94,42.54-50,40-92.28"/><path class="cls-6" d="M74,387.95c4.09-6.94,33.51,21.68,28.36,28S70.1,394.56,74,387.95Z"/><path class="cls-7" d="M66.57,427c.59-8.08,36.1,3.54,34.28,11.52S66,434.68,66.57,427Z"/><path class="cls-8" d="M133.61,391.31c6.29,4.93-24.76,31.67-30.3,25.74S127.62,386.62,133.61,391.31Z"/><path class="cls-9" d="M130.35,425c5.29,6-24.7,21-29.2,14.23S125.31,419.32,130.35,425Z"/><path class="cls-10" d="M68.93,456c-1.55-7.42,37.59-3.15,37.93,4.49S70.41,463.09,68.93,456Z"/><path class="cls-11" d="M128.44,447.38c4.06,6.86-24,24-27.25,16.51S124.58,440.84,128.44,447.38Z"/><path class="cls-12" d="M113,354.58c7.9.58-2.32,40.39-10.13,38.55S105.44,354,113,354.58Z"/><path class="cls-13" d="M77,386.06c4.09-6.94,33.51,21.68,28.36,28S73.06,392.67,77,386.06Z"/><path class="cls-14" d="M68.94,425.32c.59-8.08,36.1,3.54,34.28,11.52S68.38,433,68.94,425.32Z"/><path class="cls-15" d="M134.8,389.54c6.29,4.93-24.76,31.67-30.3,25.74S128.81,384.84,134.8,389.54Z"/><path class="cls-16" d="M119.83,438.75c.55-5.42,2.06-10.42,5.17-14,3.75-.75,6.9-.6,8.28,1C136.21,429,128.25,435.14,119.83,438.75Z"/><path class="cls-17" d="M131.83,423.74c5.29,6-24.7,21-29.2,14.23S126.8,418,131.83,423.74Z"/><path class="cls-18" d="M105,383.74s.9,20.68-1.84,38.73,4.17,48.6,15.42,58.36"/><path class="cls-19" d="M68.93,454.61c-1.55-7.42,37.59-3.15,37.93,4.49S70.41,461.67,68.93,454.61Z"/><path class="cls-20" d="M121.26,460.49c-.06-.34-.12-.7-.19-1.05a97.42,97.42,0,0,1-1.39-11.4c0-.12,0-.24,0-.35,6.39-3.54,13.21-5.32,15-2.26C136.95,449.27,129.13,456.34,121.26,460.49Z"/><path class="cls-21" d="M133.23,442.48c4.06,6.86-24,24-27.25,16.51S129.37,435.94,133.23,442.48Z"/><path class="cls-22" d="M114.89,354.05c7.9.58-2.32,40.39-10.13,38.55S107.36,353.5,114.89,354.05Z"/><path class="cls-23" d="M121.67,545.08H97.34a21.91,21.91,0,0,1-21.71-19l-6-44.78a5.06,5.06,0,0,1,5-5.73h69.8a5.06,5.06,0,0,1,5,5.73l-6,44.78A21.91,21.91,0,0,1,121.67,545.08Z"/><rect class="cls-24" x="97.87" y="90.06" width="315.29" height="216.5" rx="11.45" ry="11.45"/><rect class="cls-25" x="106.83" y="99.35" width="297.35" height="197.93" rx="6.84" ry="6.84"/><path class="cls-26" d="M432.06,515.57a6.11,6.11,0,0,1-6-7l14.41-106.86,11.94,1.35L438.11,510.34C437.68,513.34,432.06,515.57,432.06,515.57Z"/><polygon class="cls-27" points="428.09 482.96 433.42 492.62 445.26 500.29 450.23 499.62 456.92 484.62 454.92 477.79 446.42 473.79 428.09 482.96"/><path class="cls-28" d="M443.41,353.53c-10,1.7-38.69,6.66-46.17,16-5.76,7.2-10,28.31-20.09,53.09-2.93-7.36-6.65-20.71-8.51-27.7-2.59-9.74-5-31.45,17.12-37.08C400.37,354.12,432.38,352.81,443.41,353.53Z"/><path class="cls-29" d="M426,352.84s-24.64,2.49-35.78,16.08c-8.75,10.68-16.62,43.19-16.62,43.19"/><path class="cls-30" d="M538.61,507.73,523.83,398.84l10-4,16.73,110.8c.69,3.94-2.34,4.66-5.33,5.2S539.32,511.75,538.61,507.73Z"/><path class="cls-31" d="M500,520.77,487.36,396.64H499.7l12.57,123.25c.28,3.83-2.64,3.68-5.52,4.11C503.55,524.49,500.31,525.11,500,520.77Z"/><path class="cls-32" d="M545.8,382.19c-2.61,19.29-31,22-64,23.07-1,.5-37.46.28-54.44-5.44l.59-130.62c0-11,4.71-29.23,20.81-29.5,27-.45,77.15-4.57,96.78,1.5,4.49,16.12,7.76,33.92.28,80.48C541.53,348.32,547.06,372.93,545.8,382.19Z"/><path class="cls-33" d="M538.36,249.29c6,18,5.24,28.4-2.75,57.47-13.31,48.45,8.54,73.32-37.63,97.75,28-1.6,45.6-5.91,47.82-22.33,1.26-9.26-4.27-33.87,0-60.52,5.51-34.29,15.79-62.31,2.12-78.87C544.13,238.21,536.34,243.21,538.36,249.29Z"/><path class="cls-34" d="M372.26,498c-7.81-2.89-18.25-9-18.25-9s-13,14-14.45,15.37c4.81,1.9,2.39,15.8,6.37,18s14.51-7.32,19.58-6.16C366,511.78,370.89,500.44,372.26,498Z"/><path class="cls-28" d="M449.06,475.46l-21,10.18c-2.61-2-4-6.8-5.83-9.64-3.3-5.11-6.83-4.33-12.32-12.36l-13.7-23.34,28.9-43.92L443.76,447c1.6,4.11,1,15.38,1,15.38C446.19,465.68,452.44,474.15,449.06,475.46Z"/><path class="cls-35" d="M545.8,288.91C538.75,290.1,517,293,510.18,290c.71,6.74,1.44,18.69,1.44,18.69s-58.16-5.55-80,2.77c0-.71,0-1.55.05-2.47.27-7.78,1.55-21.8,1.55-21.8s-10.53-2-13.64-5.17a3.65,3.65,0,0,1-.54-.68c.48-4,5.3-20.75,14.18-34.47,7.49-11.57,18.14-16.83,37.37-19.56l25.45-1.77s25.33-2.68,37,10.08S545.8,288.91,545.8,288.91Z"/><path class="cls-36" d="M433.25,287.16s0,12.24,1.06,21c-20.13,9.07-24.43,16.27-24.17,17.75l-4.29-17.63,8.43-.91L419.61,282C422.72,285.14,433.25,287.16,433.25,287.16Z"/><path class="cls-37" d="M407.73,334.77H321.25L305.4,266.63a5.7,5.7,0,0,1,5.56-7h80.84Z"/><path class="cls-38" d="M522.24,351.7s10.64,28.3-23.18,40.18c-21.87,7.68-63,6.1-63,6.1l-46.35,85.85a14.43,14.43,0,0,1-6.72,6.26l-1.29.58c-1.58,2.26-6.31,14-8.86,12.93l-24.3-11.37c-2.17-.89,3.24-8.75,4.28-10.85.72-1.46-.46-10.24.63-14.79,7.5-31.5,29.13-87.34,36.51-96.45,7.53-9.3,19-13.41,29-15.11,10.86-1.85,24.18-6.41,24.18-6.41Z"/><path class="cls-39" d="M432.64,350.35s-3.62-.45-9.27-.82"/><path class="cls-40" d="M589.09,533.47h-8.64c-2.59,0-4.69-1.41-4.69-3.16V348.84h18V530.32C593.78,532.06,591.68,533.47,589.09,533.47Z"/><path class="cls-41" d="M281.47,533.47H270.22c-1.54,0-2.79-.9-2.79-2V348.84h16.84V531.46C284.26,532.57,283,533.47,281.47,533.47Z"/><polygon class="cls-42" points="519.26 344.07 434.59 334.77 434.59 306.77 528.99 314.65 519.26 344.07"/><path class="cls-43" d="M267.71,334.6h325.6a10.45,10.45,0,0,1,10.45,10.45v8.47a0,0,0,0,1,0,0H257.26a0,0,0,0,1,0,0v-8.47A10.45,10.45,0,0,1,267.71,334.6Z"/><path class="cls-44" d="M444.32,330.51l-.91,4.06H407.73L389,263.18a2.84,2.84,0,0,1,2.74-3.55h0a2.84,2.84,0,0,1,2.76,2.17l11.3,46.47,4.29,17.63v0a1.45,1.45,0,0,0,0,.17l0,.06h30.6A3.59,3.59,0,0,1,444.32,330.51Z"/><circle class="cls-25" cx="352.76" cy="299.01" r="7.26"/><line class="cls-45" x1="510.24" y1="289.61" x2="507.87" y2="275.9"/><line class="cls-45" x1="433.25" y1="287.16" x2="435.37" y2="275.9"/><path class="cls-46" d="M544.14,289.21c-.09,8.57-.72,28-4.39,36.3-4.78,10.81-11.33,10.67-29.23,7.66S463,319.51,453.76,319.51s-15,6.67-15,6.67H410c-.26-1.48-.15-9.1,21.7-17.22,3.66-1.55,14.21-2.83,23.35-3.49,25.1-1.81,56,2.77,56,2.77s-.12-11.53-.83-18.27C516.94,293,537.9,290.15,544.14,289.21Z"/><path class="cls-47" d="M485.6,309.88s9.14-.75,9.14,6.91-9.14,7.74-9.14,7.74"/><path class="cls-48" d="M486.67,334.57H463.93l-3.19-32.35a3,3,0,0,1,3.12-3.21h21.8a3,3,0,0,1,3.13,3.12Z"/><path class="cls-45" d="M463.51,234.76s1.42,9,16.92,8.17,20.21-13,20.21-13"/><path class="cls-28" d="M310.52,510.15s-9.48-2.09-13.11-.79-4.56,4-4.82,6.89,2.79,7,14.57,11.36A356.38,356.38,0,0,0,344,538.54c3.86.78,10.4,1.94,16,1.62a7.28,7.28,0,0,0,6.55-5.55,19.9,19.9,0,0,1,1.16-3.36c1-2,.62-4.36,1.2-6s2-13-1.2-14.64-8.36,8.07-15.44,7.27-7.87-9.66-7.87-9.66,3.38-3.09,1.56-5.26.27-3.89-1.17-4.75-6.52,2.17-6.52,2.17-16.35,6.72-22.76,9.43C314.18,510.31,310.52,510.15,310.52,510.15Z"/><path class="cls-45" d="M296.84,518.59c21,12,45.42,12.25,45.42,12.25,6.83,1.59,13.65,6.13,22.41.92l.77-.42"/><path class="cls-28" d="M429.11,487.13s12.13,3.65,14.5,7.6,10.47-8.1,6.9-14.91,1.3-5.7,4.65-2.93,6.06.76,8.4,2.75,7.15,6.4,3.64,14.68-11.37,11.84-14.49,18.05-2,18.86-6.79,23.59S432,546.76,421.72,541.7s-1.1-18.86,1.3-22.3,2.87-15.2,3-20S425.35,488.56,429.11,487.13Z"/><path class="cls-49" d="M454.87,478.4s6.79,2.06,4.44,10.36-10.93,14.65-11.81,23.42-.8,16.56-9.29,22.92-12.2,5.47-12.2,5.47"/><path class="cls-50" d="M497,224.6c-.36-2.22-1.39-7.92-2.28-14.58-.62-4.62-1.25-9.39-1.74-13.08,0-.32-.07-.63-.12-.93a47.22,47.22,0,0,1-.47-6c.07-.13.15-.26.21-.38,6.09-10.87,5.05-18,.84-20.4a6.58,6.58,0,0,0-1.78-.69h0s1.68-13.82-4-25c-7.46-14.75-28.72-14.91-41.7-11.14s-24.33,19.4-19.88,33.79c1.77,5.72,4.44,10.92,5.09,16.15s-1.48,13.9,2.54,22.39c5.75,12.18,18.9,15.43,27,15.39a25.69,25.69,0,0,0,3.07-.2l.36,2.19.29,1.78.31,1.93c.7,4.33,1.24,5.31,1.24,5.31a14.28,14.28,0,0,0,15.54,7.76C492.89,237.06,497.91,230,497,224.6Z"/><path class="cls-51" d="M493,196.94a46.83,46.83,0,0,1-28.54,27l-.29-1.78-.36-2.19c8.82-4.83,18.67-13.8,28.82-30.32-.06.13-.14.26-.21.38a47.22,47.22,0,0,0,.47,6C493,196.31,493,196.62,493,196.94Z"/><path class="cls-38" d="M484.05,182.87l.53,3.7c-8.4,4.79-27.53,18.54-31.15,19.1-4.59.71-6.13-4.62-8.6-3.38s-2.11,4.45-3.83,4.45c-.89,0-6.76-3.41-8.68-5.71,0,0,3,9,3.62,10.63,1.48,3.68,10.12,11.12,10.12,11.12a4.24,4.24,0,0,0,3.37,1.09l10.84-1.22,5.45-3.14c7.59-4.06,25.17-20.06,25.24-22.25a52.58,52.58,0,0,0-1.23-12.11Z"/></g></svg>